<?xml version="1.0" standalone="no"?>
<!DOCTYPE svg PUBLIC "-//W3C//DTD SVG 20010904//EN"
 "http://www.w3.org/TR/2001/REC-SVG-20010904/DTD/svg10.dtd">
<svg version="1.0" xmlns="http://www.w3.org/2000/svg"
 width="656.000000pt" height="656.000000pt" viewBox="0 0 656.000000 656.000000"
 preserveAspectRatio="xMidYMid meet">
<metadata>
Created by potrace 1.14, written by Peter Selinger 2001-2017
</metadata>
<g transform="translate(0.000000,656.000000) scale(0.100000,-0.100000)"
fill="#000000" stroke="none">
<path d="M3127 6452 c-67 -41 -131 -80 -142 -86 -11 -6 -31 -19 -45 -27 -111
-72 -714 -439 -720 -439 -5 0 -10 -4 -12 -8 -1 -5 -15 -15 -30 -23 -15 -8 -73
-43 -130 -78 -57 -36 -301 -186 -543 -334 -242 -148 -510 -313 -595 -365 -291
-179 -269 -163 -270 -202 -3 -134 -1 -3252 2 -3255 2 -2 195 -121 428 -264
234 -143 430 -265 437 -271 7 -5 14 -10 16 -10 2 0 107 -64 233 -141 233 -144
423 -261 474 -291 16 -9 115 -70 222 -136 762 -470 769 -474 785 -460 13 10
17 10 20 1 3 -7 8 -13 13 -13 6 0 460 268 560 332 41 26 952 570 974 582 12 6
47 28 79 49 31 20 59 37 61 37 3 0 148 86 286 169 367 222 451 273 583 350 91
54 107 67 108 90 1 14 0 31 -1 36 -1 6 -2 15 -2 20 1 10 3 3126 3 3180 -1 29
-11 37 -158 125 -87 52 -159 98 -161 102 -2 5 -8 8 -14 8 -5 0 -82 44 -171 98
-89 53 -170 102 -179 107 -10 6 -55 32 -100 60 -46 27 -92 54 -103 60 -11 6
-39 24 -63 39 -24 15 -58 35 -75 45 -18 10 -395 237 -840 503 l-807 485 -123
-75z m433 -205 c162 -97 300 -181 307 -187 7 -5 14 -10 17 -10 6 0 168 -97
183 -110 7 -5 14 -10 17 -10 2 0 34 -18 71 -41 37 -22 82 -49 99 -59 66 -37
492 -293 516 -309 21 -14 413 -249 964 -579 l105 -62 0 -789 -1 -790 -305
-188 c-168 -103 -317 -195 -332 -203 -14 -8 -96 -59 -181 -112 -424 -264
-1394 -858 -1401 -858 -5 0 -9 -4 -9 -9 0 -5 -8 -12 -17 -15 -20 -7 -15 -4
-176 -105 -65 -40 -120 -71 -123 -68 -4 3 -8 2145 -4 2299 0 16 48 48 190 125
138 75 859 479 892 499 l37 24 -17 30 c-9 16 -21 30 -26 30 -4 0 -85 -43 -180
-97 -94 -53 -196 -110 -226 -126 -30 -17 -111 -62 -180 -100 -69 -39 -145 -81
-170 -95 -25 -14 -61 -34 -80 -45 -19 -11 -91 -51 -159 -88 l-123 -69 -92 49
c-50 26 -145 77 -211 111 -66 35 -151 80 -190 100 -38 21 -110 59 -160 85 -49
26 -117 62 -150 80 -33 18 -123 65 -200 105 -77 40 -148 78 -158 84 -15 9 -22
6 -38 -13 -11 -13 -19 -31 -17 -39 2 -7 55 -41 118 -74 63 -33 151 -79 195
-103 44 -23 134 -71 200 -105 66 -34 143 -75 170 -90 28 -15 111 -59 185 -98
74 -39 173 -91 220 -116 l85 -45 1 -1151 2 -1151 -22 14 c-103 65 -412 256
-440 272 -35 20 -767 475 -886 550 -36 23 -105 66 -153 96 -48 30 -107 66
-130 82 -23 15 -50 30 -59 33 -10 4 -18 10 -18 15 0 5 -4 9 -9 9 -9 0 -497
300 -661 405 -36 23 -75 47 -87 53 l-22 12 0 790 0 790 22 14 c81 49 227 139
377 232 96 60 177 109 180 109 7 1 102 62 117 75 7 5 14 10 17 10 3 0 66 38
140 84 74 46 158 97 185 113 28 15 51 31 51 36 0 4 4 7 10 7 5 0 40 19 78 43
37 23 77 47 88 54 120 74 161 99 174 106 8 4 45 27 82 50 37 23 159 98 270
166 112 68 226 139 253 156 28 17 133 83 235 145 102 62 196 121 210 131 14
10 32 17 40 15 8 -2 148 -82 310 -179z m-2490 -3257 c179 -111 337 -210 351
-219 112 -68 245 -150 300 -185 117 -73 547 -340 607 -376 884 -548 888 -550
851 -550 -9 0 -34 -13 -55 -28 -22 -16 -61 -41 -87 -56 -27 -14 -60 -35 -75
-45 -15 -10 -99 -63 -187 -116 -88 -54 -183 -111 -210 -129 -28 -17 -59 -36
-70 -43 -37 -22 -320 -196 -355 -218 -67 -44 -170 -105 -177 -105 -4 0 -59 32
-122 71 -260 161 -369 228 -431 265 -36 21 -67 42 -70 45 -3 3 -10 8 -15 10
-6 2 -73 42 -148 89 -76 47 -149 92 -162 100 -13 8 -73 44 -132 80 -59 35
-110 67 -113 70 -3 3 -14 10 -25 16 -20 11 -20 23 -22 773 -1 585 1 762 10
758 7 -2 158 -96 337 -207z m4767 -552 l-2 -761 -27 -16 c-15 -9 -103 -61
-194 -116 -92 -55 -172 -102 -178 -104 -6 -2 -13 -7 -16 -10 -3 -4 -151 -93
-330 -200 -179 -106 -337 -202 -352 -212 -15 -10 -29 -19 -32 -19 -2 0 -34
-18 -70 -40 -36 -22 -69 -40 -73 -40 -3 0 -34 17 -67 39 -34 21 -126 79 -206
128 -497 307 -917 568 -927 577 -10 9 9 25 80 68 50 30 301 184 556 342 255
157 465 286 466 286 2 0 30 17 62 38 32 21 65 42 73 45 8 4 34 20 57 35 24 15
181 112 350 216 170 105 344 212 388 240 44 27 89 54 100 60 11 6 46 28 78 49
31 20 60 37 63 37 2 0 10 5 17 11 16 14 170 108 179 108 4 1 6 -342 5 -761z
m-2447 -889 c14 -9 43 -27 66 -40 22 -13 134 -82 248 -154 114 -71 219 -137
234 -146 15 -9 66 -40 114 -70 48 -30 164 -101 257 -159 138 -85 168 -107 158
-118 -11 -10 -371 -230 -512 -312 -16 -9 -145 -86 -285 -170 -140 -84 -270
-161 -288 -172 -18 -10 -44 -26 -58 -35 -14 -8 -27 -13 -30 -11 -4 5 -6 542
-4 1286 l0 164 38 -23 c20 -12 48 -30 62 -40z m-182 -680 c-1 -620 -3 -709
-16 -704 -14 5 -324 195 -432 264 -30 20 -57 36 -60 36 -3 0 -16 8 -30 17 -14
9 -158 98 -320 198 -162 99 -296 184 -297 188 -2 4 9 14 25 23 15 9 170 104
345 212 176 109 323 197 327 197 5 0 10 4 12 8 2 5 30 24 63 44 33 19 130 79
215 131 85 53 158 97 162 97 3 0 6 -320 6 -711z"/>
</g>
</svg>
